<?xml version="1.0" encoding="utf-8"?>
<!-- Generator: Adobe Illustrator 21.0.2, SVG Export Plug-In . SVG Version: 6.00 Build 0)  -->
<svg version="1.1" id="Calque_1" xmlns="http://www.w3.org/2000/svg" xmlns:xlink="http://www.w3.org/1999/xlink" x="0px" y="0px"
	 viewBox="0 0 23 23" style="enable-background:new 0 0 23 23;" xml:space="preserve">
<style type="text/css">
	.st0{fill:#BA0000;}
	.st1{fill:#FFFFFF;}
</style>
<title>Fichier 6deleate</title>
<g id="Calque_2">
	<g id="Calque_1-2">
		<circle class="st0" cx="11.5" cy="11.5" r="11.5"/>
		<path class="st1" d="M13.1,11.5l4.4-4.4c0.4-0.5,0.4-1.2,0-1.6c-0.4-0.4-1.2-0.4-1.6,0l-4.4,4.4L7.1,5.5C6.7,5,5.9,5.1,5.5,5.5
			C5.1,6,5.1,6.7,5.5,7.1l4.4,4.4l-4.4,4.4c-0.4,0.5-0.4,1.2,0,1.6c0.4,0.4,1.2,0.4,1.6,0l4.4-4.4l4.4,4.4c0.5,0.4,1.2,0.4,1.6,0
			c0.4-0.4,0.4-1.2,0-1.6L13.1,11.5z"/>
	</g>
</g>
</svg>
